<svg width="198" height="54" viewBox="0 0 198 54" fill="none" xmlns="http://www.w3.org/2000/svg">
<rect width="198" height="54" fill="#F2F2F2"/>
<rect width="1440" height="900" transform="translate(-522 -364)" fill="#1A2A33"/>
<g filter="url(#filter0_d_0_1)">
<g clip-path="url(#clip0_0_1)">
<g filter="url(#filter1_i_0_1)">
<rect x="-32" y="-77" width="460" height="205" rx="15" fill="#1F3641"/>
</g>
<rect x="-8" y="-9" width="412" height="72" rx="10" fill="#1A2A33"/>
<path fill-rule="evenodd" clip-rule="evenodd" d="M114.557 16.2897L109.71 11.4431C109.12 10.8523 108.162 10.8523 107.571 11.4431L99 20.014L90.429 11.4431C89.8383 10.8523 88.8805 10.8523 88.2897 11.4431L83.4431 16.2897C82.8523 16.8805 82.8523 17.8383 83.4431 18.429L92.014 27L83.4431 35.571C82.8523 36.1617 82.8523 37.1195 83.4431 37.7103L88.2897 42.5569C88.8805 43.1477 89.8383 43.1477 90.429 42.5569L99 33.986L107.571 42.5569C108.162 43.1477 109.12 43.1477 109.71 42.5569L114.557 37.7103C115.148 37.1195 115.148 36.1617 114.557 35.571L105.986 27L114.557 18.429C115.148 17.8383 115.148 16.8805 114.557 16.2897Z" fill="#A8BFC9"/>
</g>
</g>
<defs>
<filter id="filter0_d_0_1" x="-36" y="-149" width="468" height="479" filterUnits="userSpaceOnUse" color-interpolation-filters="sRGB">
<feFlood flood-opacity="0" result="BackgroundImageFix"/>
<feColorMatrix in="SourceAlpha" type="matrix" values="0 0 0 0 0 0 0 0 0 0 0 0 0 0 0 0 0 0 127 0" result="hardAlpha"/>
<feOffset dy="4"/>
<feGaussianBlur stdDeviation="2"/>
<feComposite in2="hardAlpha" operator="out"/>
<feColorMatrix type="matrix" values="0 0 0 0 0 0 0 0 0 0 0 0 0 0 0 0 0 0 0.25 0"/>
<feBlend mode="normal" in2="BackgroundImageFix" result="effect1_dropShadow_0_1"/>
<feBlend mode="normal" in="SourceGraphic" in2="effect1_dropShadow_0_1" result="shape"/>
</filter>
<filter id="filter1_i_0_1" x="-32" y="-77" width="460" height="205" filterUnits="userSpaceOnUse" color-interpolation-filters="sRGB">
<feFlood flood-opacity="0" result="BackgroundImageFix"/>
<feBlend mode="normal" in="SourceGraphic" in2="BackgroundImageFix" result="shape"/>
<feColorMatrix in="SourceAlpha" type="matrix" values="0 0 0 0 0 0 0 0 0 0 0 0 0 0 0 0 0 0 127 0" result="hardAlpha"/>
<feOffset dy="-8"/>
<feComposite in2="hardAlpha" operator="arithmetic" k2="-1" k3="1"/>
<feColorMatrix type="matrix" values="0 0 0 0 0.0627451 0 0 0 0 0.129412 0 0 0 0 0.164706 0 0 0 1 0"/>
<feBlend mode="normal" in2="shape" result="effect1_innerShadow_0_1"/>
</filter>
<clipPath id="clip0_0_1">
<rect width="460" height="205" fill="white" transform="translate(-32 -77)"/>
</clipPath>
</defs>
</svg>
