<svg width="60" height="60" viewBox="0 0 60 60" fill="none" xmlns="http://www.w3.org/2000/svg">
<g filter="url(#filter0_d_0_1898)">
<g filter="url(#filter1_i_0_1898)">
<rect x="4" width="52" height="52" rx="10" fill="#DBE8ED"/>
</g>
</g>
<path d="M39.5241 16H37.644C37.3812 15.9997 37.1679 16.2126 37.1676 16.4756C37.1676 16.4834 37.1678 16.4911 37.1681 16.4988L37.3268 19.7829C35.46 17.5818 32.7198 16.3143 29.8348 16.3174C24.4154 16.3175 19.996 20.7432 20 26.1663C20.004 31.598 24.4058 36 29.8348 36C32.2702 36.0034 34.6195 35.0993 36.425 33.4639C36.6208 33.2885 36.6375 32.9874 36.4622 32.7915C36.4563 32.7849 36.4502 32.7785 36.444 32.7722L35.0957 31.423C34.9186 31.2459 34.6346 31.2363 34.4461 31.4012C31.5521 33.949 27.1419 33.6669 24.5956 30.7709C22.0494 27.875 22.3314 23.4619 25.2254 20.914C28.1195 18.3661 32.5297 18.6483 35.0759 21.5442C35.2755 21.7712 35.4601 22.011 35.6287 22.2619L31.6024 22.0686C31.3398 22.0562 31.1169 22.259 31.1044 22.5217C31.104 22.5294 31.1038 22.5371 31.1039 22.5448V24.4262C31.1039 24.6892 31.3169 24.9024 31.5798 24.9024H39.5242C39.787 24.9024 40 24.6892 40 24.4262V16.4762C40 16.2132 39.787 16 39.5241 16Z" fill="#1F3641"/>
<defs>
<filter id="filter0_d_0_1898" x="0" y="0" width="60" height="60" filterUnits="userSpaceOnUse" color-interpolation-filters="sRGB">
<feFlood flood-opacity="0" result="BackgroundImageFix"/>
<feColorMatrix in="SourceAlpha" type="matrix" values="0 0 0 0 0 0 0 0 0 0 0 0 0 0 0 0 0 0 127 0" result="hardAlpha"/>
<feOffset dy="4"/>
<feGaussianBlur stdDeviation="2"/>
<feComposite in2="hardAlpha" operator="out"/>
<feColorMatrix type="matrix" values="0 0 0 0 0 0 0 0 0 0 0 0 0 0 0 0 0 0 0.25 0"/>
<feBlend mode="normal" in2="BackgroundImageFix" result="effect1_dropShadow_0_1898"/>
<feBlend mode="normal" in="SourceGraphic" in2="effect1_dropShadow_0_1898" result="shape"/>
</filter>
<filter id="filter1_i_0_1898" x="4" y="0" width="52" height="52" filterUnits="userSpaceOnUse" color-interpolation-filters="sRGB">
<feFlood flood-opacity="0" result="BackgroundImageFix"/>
<feBlend mode="normal" in="SourceGraphic" in2="BackgroundImageFix" result="shape"/>
<feColorMatrix in="SourceAlpha" type="matrix" values="0 0 0 0 0 0 0 0 0 0 0 0 0 0 0 0 0 0 127 0" result="hardAlpha"/>
<feOffset dy="-4"/>
<feComposite in2="hardAlpha" operator="arithmetic" k2="-1" k3="1"/>
<feColorMatrix type="matrix" values="0 0 0 0 0.418727 0 0 0 0 0.538482 0 0 0 0 0.590549 0 0 0 1 0"/>
<feBlend mode="normal" in2="shape" result="effect1_innerShadow_0_1898"/>
</filter>
</defs>
</svg>
